<?xml version="1.0" encoding="utf-8"?>
<svg aria-hidden="true" focusable="false" data-prefix="far" data-icon="heart" class="svg-inline--fa fa-heart fa-w-16" role="img" viewBox="0 0 512 512" xmlns="http://www.w3.org/2000/svg">
  <path d="M 458.4 64.3 C 400.6 15.7 311.3 23 256 79.3 C 200.7 23 111.4 15.6 53.6 64.3 C -21.6 127.6 -10.6 230.8 43 285.5 L 218.4 464.2 C 228.4 474.4 241.8 480.1 256 480.1 C 270.3 480.1 283.6 474.5 293.6 464.3 L 469 285.6 C 522.5 230.9 533.7 127.7 458.4 64.3 Z M 458.082 269.453 L 264.321 457.365 C 261.921 459.765 248.359 458.438 245.959 456.038 L 56.626 266.725 C 10.898 228.971 5.245 138.59 63.011 84.543 C 94.675 54.917 177.401 37.527 216.482 76.16 L 256.133 112.221 L 291.97 78.812 C 329.77 40.312 397.599 51.724 440.351 78.793 C 510.088 122.948 502.046 232.992 458.082 269.453 Z" style=""/>
</svg>